<svg version="1.1" id="Capa_1" xmlns="http://www.w3.org/2000/svg" xmlns:xlink="http://www.w3.org/1999/xlink" x="0px" y="0px" viewBox="0 0 1240.328 1240.328" style="enable-background:new 0 0 1240.328 1240.328;" xml:space="preserve"><g><g id="Computer_Display-Play"><linearGradient id="SVGID_1_" gradientUnits="userSpaceOnUse" x1="620.1639" y1="1251.421" x2="620.1639" y2="-49.0626" gradientTransform="matrix(1 0 0 -1 0 1260)"><stop offset="0" style="stop-color:#FFF33B"/><stop offset="0.014" style="stop-color:#FEE72E"/><stop offset="0.042" style="stop-color:#FED51B"/><stop offset="0.07" style="stop-color:#FDCA10"/><stop offset="0.1" style="stop-color:#FDC70C"/><stop offset="0.4" style="stop-color:#F3903F"/><stop offset="0.8" style="stop-color:#ED683C"/><stop offset="1" style="stop-color:#E93E3A"/></linearGradient><path style="fill:url(#SVGID_1_);" d="M1178.312,0H62.016C27.766,0,0,27.766,0,62.016v744.197 c0,34.251,27.766,62.016,62.016,62.016h351.426c57.056,0.068,103.292,46.305,103.361,103.361 c-0.102,57.042-46.319,103.258-103.361,103.361c-0.269,0-0.475,0.145-0.744,0.145c-1.583,0.127-3.145,0.446-4.651,0.951 c-1.077,0.201-2.134,0.492-3.163,0.868c-1.255,0.672-2.44,1.468-3.535,2.377c-1.018,0.663-1.98,1.41-2.873,2.233 c-0.783,0.968-1.474,2.006-2.067,3.101c-0.83,1.171-1.524,2.433-2.067,3.762c-0.103,0.248-0.31,0.434-0.413,0.703l-41.344,124.033 c-3.608,10.832,2.248,22.538,13.08,26.145c2.075,0.691,4.247,1.049,6.434,1.059h496.131c11.417,0.003,20.674-9.25,20.677-20.667 c0-2.222-0.357-4.429-1.059-6.537l-41.344-124.033c0-0.269-0.31-0.455-0.413-0.703c-0.551-1.332-1.244-2.6-2.067-3.783 c-1.063-2.273-2.822-4.149-5.023-5.354c-1.075-0.889-2.239-1.665-3.473-2.315c-1.041-0.393-2.112-0.697-3.204-0.91 c-1.496-0.486-3.043-0.798-4.61-0.93c-0.269,0-0.475-0.145-0.744-0.145c-57.042-0.102-103.258-46.319-103.361-103.361 c0.068-57.056,46.305-103.292,103.361-103.361h351.344c34.251,0,62.016-27.766,62.016-62.016V62.016 C1240.328,27.766,1212.562,0,1178.312,0z M682.18,971.59c0.08,74.012,55.936,136.062,129.532,143.899l27.845,83.495H400.771 l27.845-83.495c73.587-7.854,129.432-69.894,129.532-143.899c0.009-38.933-15.731-76.214-43.639-103.361h211.311 C697.911,895.376,682.171,932.657,682.18,971.59z M1198.984,806.213c0,11.417-9.255,20.672-20.672,20.672H62.016 c-11.417,0-20.672-9.255-20.672-20.672v-62.016h1157.639V806.213z M41.344,702.852V62.016c0-11.417,9.255-20.672,20.672-20.672 h1116.295c11.417,0,20.672,9.255,20.672,20.672v640.836H41.344z"/><linearGradient id="SVGID_2_" gradientUnits="userSpaceOnUse" x1="620.1758" y1="1255.9276" x2="620.1758" y2="-53.4246" gradientTransform="matrix(1 0 0 -1 0 1260)"><stop offset="0" style="stop-color:#FFF33B"/><stop offset="0.014" style="stop-color:#FEE72E"/><stop offset="0.042" style="stop-color:#FED51B"/><stop offset="0.07" style="stop-color:#FDCA10"/><stop offset="0.1" style="stop-color:#FDC70C"/><stop offset="0.4" style="stop-color:#F3903F"/><stop offset="0.8" style="stop-color:#ED683C"/><stop offset="1" style="stop-color:#E93E3A"/></linearGradient><path style="fill:url(#SVGID_2_);" d="M753.437,353.597L505.372,229.564c-10.213-5.103-22.629-0.961-27.732,9.252 c-1.435,2.872-2.182,6.039-2.18,9.25v248.066c-0.005,11.417,9.246,20.676,20.662,20.682c3.211,0.002,6.378-0.745,9.25-2.18 L753.437,390.6c10.218-5.093,14.373-17.505,9.28-27.723C760.714,358.858,757.457,355.6,753.437,353.597z M516.803,462.684V281.513 l181.171,90.585L516.803,462.684z"/><linearGradient id="SVGID_3_" gradientUnits="userSpaceOnUse" x1="620.1639" y1="1251.6692" x2="620.1639" y2="-37.9412" gradientTransform="matrix(1 0 0 -1 0 1260)"><stop offset="0" style="stop-color:#FFF33B"/><stop offset="0.014" style="stop-color:#FEE72E"/><stop offset="0.042" style="stop-color:#FED51B"/><stop offset="0.07" style="stop-color:#FDCA10"/><stop offset="0.1" style="stop-color:#FDC70C"/><stop offset="0.4" style="stop-color:#F3903F"/><stop offset="0.8" style="stop-color:#ED683C"/><stop offset="1" style="stop-color:#E93E3A"/></linearGradient><path style="fill:url(#SVGID_3_);" d="M950.918,144.705H289.41c-34.251,0-62.016,27.766-62.016,62.016v330.754 c0,34.251,27.766,62.016,62.016,62.016h661.508c34.251,0,62.016-27.766,62.016-62.016V206.721 C1012.934,172.471,985.169,144.705,950.918,144.705z M971.59,537.475c0,11.417-9.255,20.672-20.672,20.672H289.41 c-11.417,0-20.672-9.255-20.672-20.672V206.721c0-11.417,9.255-20.672,20.672-20.672h661.508c11.417,0,20.672,9.255,20.672,20.672 V537.475z"/></g></g></svg>