<?xml version="1.0" standalone="no"?>
<!DOCTYPE svg PUBLIC "-//W3C//DTD SVG 20010904//EN"
 "http://www.w3.org/TR/2001/REC-SVG-20010904/DTD/svg10.dtd">
<svg version="1.0" xmlns="http://www.w3.org/2000/svg"
 width="321.000000pt" height="319.000000pt" viewBox="0 0 321.000000 319.000000"
 preserveAspectRatio="xMidYMid meet">

<g transform="translate(0.000000,319.000000) scale(0.100000,-0.100000)"
fill="#000000" stroke="none">
<path d="M2613 3110 c-117 -24 -252 -131 -307 -245 -43 -88 -55 -189 -33 -273
33 -130 160 -349 329 -568 74 -94 94 -110 126 -99 9 3 50 48 90 99 169 219
296 438 329 568 34 134 -12 283 -122 393 -111 112 -256 155 -412 125z m166
-309 c70 -36 96 -109 66 -186 -23 -62 -65 -90 -135 -89 -67 0 -103 21 -132 77
-66 130 70 264 201 198z"/>
<path d="M319 1806 c-102 -27 -181 -95 -228 -196 l-26 -55 -3 -626 c-2 -565
-1 -628 13 -643 13 -12 37 -16 104 -16 l87 0 12 -44 c36 -135 195 -228 339
-198 108 22 200 104 225 198 l12 44 631 0 631 0 12 -44 c25 -94 117 -176 225
-198 144 -30 303 63 339 198 l12 44 212 0 c182 0 215 2 229 16 14 15 15 78 13
643 l-3 626 -33 67 c-38 77 -92 130 -171 167 l-56 26 -1265 2 c-981 1 -1275
-1 -1311 -11z m2596 -113 c62 -33 135 -121 135 -163 0 -7 -326 -10 -1058 -10
-810 0 -1061 -3 -1070 -12 -9 -9 -12 -139 -12 -525 l0 -513 -41 0 c-36 0 -46
5 -85 49 -112 124 -296 138 -418 31 -42 -38 -53 -33 -85 34 -17 34 -21 62 -21
139 l0 97 263 0 c191 0 266 3 275 12 17 17 17 659 0 676 -9 9 -84 12 -275 12
l-263 0 0 73 c0 71 1 73 32 92 18 10 49 22 68 26 19 4 593 6 1275 5 l1240 -1
40 -22z m-2205 -523 l0 -250 -237 0 -238 0 63 62 62 63 32 -33 32 -32 38 37
38 37 -102 103 -102 103 -38 -37 -38 -37 32 -33 32 -33 -62 -63 -62 -62 0 213
0 212 275 0 275 0 0 -250z m1150 50 l0 -200 -150 0 -150 0 0 200 0 200 150 0
150 0 0 -200z m400 0 l0 -200 -150 0 -150 0 0 200 0 200 150 0 150 0 0 -200z
m400 0 l0 -200 -150 0 -150 0 0 200 0 200 150 0 150 0 0 -200z m400 0 l0 -200
-150 0 -150 0 0 200 0 200 150 0 150 0 0 -200z m0 -375 l0 -75 -88 0 c-55 0
-92 -4 -100 -12 -8 -8 -12 -56 -12 -150 l0 -138 -91 0 -91 0 -44 49 c-63 70
-132 101 -224 101 -92 0 -161 -31 -224 -101 l-44 -49 -291 0 -291 0 0 225 0
225 750 0 750 0 0 -75z"/>
</g>
</svg>
